<svg width="200" height="200" viewBox="0 0 200 200" fill="none" xmlns="http://www.w3.org/2000/svg">
<path d="M10 100.472C10 60.9977 42 29 81.475 29C120.95 29 152.949 60.9977 152.949 100.472C152.949 139.948 120.95 171.946 81.475 171.946C42 171.946 10 139.948 10 100.472Z" fill="url(#paint0_linear_2866_844)"/>
<path d="M18.202 133.741C36.688 130.714 58.811 128.952 82.585 128.952C105.488 128.952 126.859 130.588 144.925 133.415C133.013 156.311 109.072 171.946 81.477 171.946C54.016 171.946 30.171 156.459 18.202 133.741Z" fill="url(#paint1_linear_2866_844)"/>
<path d="M14.151 75.5459C19.463 61.1709 29.255 48.9636 41.835 40.6216C45.207 41.8226 50.028 43.7427 52.297 43.7427C53.024 43.7427 66.807 41.4209 67.534 41.4209C72.902 41.4209 72.23 44.1149 79.05 46.8359C81.806 47.9249 85.125 47.5686 87.774 49.0576C90.168 50.3996 89.587 52.2319 89.587 53.7549C89.587 74.7219 71.074 59.3307 60.733 80.8057C58.595 85.2687 44.314 82.5567 44.314 89.0137C44.314 92.6767 50.773 102.655 55.199 102.655C55.925 102.655 62.888 101.784 63.614 101.784C67.858 101.784 92.489 109.691 92.489 118.617C92.489 133.017 78.268 135.646 76.128 153.312C76.128 153.458 73.408 164.757 68.983 164.757C62.526 164.757 60.569 148.497 60.17 146.356C59.554 142.947 57.896 138.334 56.408 134.779C55.101 131.659 49.574 128.685 47.616 126.4C42.756 120.705 45.266 112.712 43.346 106.908C40.405 98.0207 32.656 97.0729 25.799 91.7769C23.663 90.1009 17.271 81.7409 14.151 75.5459ZM128.267 46.1777C143.452 59.3187 153.057 78.7298 153.057 100.385C153.057 118.188 146.564 134.475 135.821 147.006C134.572 147.6 133.282 147.925 131.956 147.925C129.418 147.925 126.441 146.872 126.441 144.153C126.441 140.85 127.892 137.55 127.75 133.561V120.79C127.711 117.341 126.225 109.038 120.167 109.038H114.144C109.466 109.038 100.035 105.556 100.035 98.0107C100.035 93.0767 106.13 87.4186 106.13 83.7896C106.13 83.0646 105.55 82.3388 105.55 81.6138C105.55 79.6548 109.43 76.5347 110.773 76.5347C114.799 76.5347 121.583 78.2759 127.314 78.2759C132.176 78.2759 136.601 79.2556 136.601 71.8906C136.601 67.2476 131.957 67.2476 130.215 67.2476L117.302 68.1187C111.898 68.1187 111.354 65.7968 111.354 60.5728C111.352 53.5938 122.218 47.1097 128.267 46.1777Z" fill="#1DE75A"/>
<path d="M51.8589 129.964C61.6519 129.306 71.9529 128.952 82.5859 128.952C84.8849 128.952 87.1679 128.97 89.4349 129.001C85.1309 135.89 77.6339 140.873 76.1279 153.312C76.1279 153.458 73.4079 164.757 68.9829 164.757C62.5259 164.757 60.5669 148.497 60.1699 146.356C59.5529 142.947 57.8929 138.334 56.4059 134.779C55.7039 133.102 53.7869 131.471 51.8589 129.964Z" fill="#10C18F"/>
<path d="M144.92 133.415C142.362 138.331 139.25 142.915 135.666 147.078C134.464 147.626 133.225 147.926 131.955 147.926C129.417 147.926 126.44 146.873 126.44 144.154C126.44 140.851 127.891 137.551 127.746 133.562V131.197C133.74 131.819 139.48 132.561 144.92 133.415Z" fill="#10C18F"/>
<path d="M167.142 103.491C167.142 106.216 169.358 108.427 172.089 108.427C174.822 108.427 177.037 106.216 177.037 103.491C177.037 100.764 174.822 98.5536 172.089 98.5536C169.358 98.5536 167.142 100.764 167.142 103.491ZM189.001 107.571L174.512 129.522C174.359 129.729 174.202 129.921 174.04 130.099C173.682 130.495 173.299 130.823 172.904 131.086C171.936 131.729 170.878 131.995 169.84 131.965L101.98 131.915C98.914 131.915 96.215 129.225 96.215 126.165V80.7987C96.215 77.7377 98.913 75.0477 101.98 75.0477L169.09 75.0995C170.994 74.7575 173.066 75.3746 174.591 77.4686L189.011 99.4198C190.09 100.482 190.781 101.921 190.75 103.49C190.781 105.064 190.084 106.507 189.001 107.571Z" fill="url(#paint2_linear_2866_844)"/>
<path d="M118.898 101.632C121.66 101.68 123.917 100.89 125.671 99.2569C127.428 97.6279 128.377 95.431 128.521 92.671C128.574 89.911 127.787 87.6578 126.159 85.9108C124.533 84.1628 122.329 83.2179 119.548 83.0719C116.784 83.0239 114.524 83.815 112.769 85.444C111.014 87.075 110.063 89.2661 109.919 92.0221C109.871 94.7861 110.665 97.0421 112.3 98.7921C113.937 100.541 116.136 101.487 118.898 101.632ZM115.05 122.381L121.833 122.618L146.561 84.7081L139.812 84.4728L115.05 122.381ZM119.107 95.651C118.161 95.597 117.398 95.2561 116.821 94.6261C116.242 93.9951 115.96 93.1961 115.973 92.2301C116.028 91.2511 116.366 90.4741 116.987 89.8961C117.607 89.3181 118.391 89.0369 119.338 89.0519C120.304 89.1029 121.072 89.4387 121.643 90.0577C122.213 90.6777 122.489 91.4801 122.471 92.4601C122.421 93.4231 122.087 94.1987 121.477 94.7877C120.866 95.3777 120.076 95.666 119.107 95.651ZM142.458 123.908C145.21 123.956 147.46 123.167 149.212 121.538C150.964 119.909 151.913 117.714 152.058 114.951C152.105 112.186 151.312 109.93 149.679 108.182C148.046 106.436 145.855 105.493 143.108 105.35C140.36 105.301 138.108 106.09 136.355 107.719C134.603 109.348 133.655 111.543 133.51 114.305C133.463 117.071 134.254 119.326 135.889 121.073C137.521 122.82 139.712 123.766 142.458 123.908ZM142.668 117.928C141.73 117.875 140.973 117.535 140.401 116.907C139.828 116.276 139.55 115.481 139.563 114.516C139.618 113.532 139.953 112.751 140.566 112.172C141.18 111.593 141.958 111.313 142.898 111.328C143.859 111.378 144.62 111.713 145.184 112.332C145.747 112.953 146.019 113.754 146.001 114.74C145.95 115.702 145.623 116.478 145.017 117.066C144.414 117.654 143.63 117.942 142.668 117.928Z" fill="#6BFFFF"/>
<defs>
<linearGradient id="paint0_linear_2866_844" x1="82.5724" y1="27.9363" x2="80.3768" y2="173.016" gradientUnits="userSpaceOnUse">
<stop stop-color="#00DBDB"/>
<stop offset="0.9804" stop-color="#3647D3"/>
</linearGradient>
<linearGradient id="paint1_linear_2866_844" x1="18.7996" y1="145.71" x2="140.982" y2="153.993" gradientUnits="userSpaceOnUse">
<stop stop-color="#1B2BBB"/>
<stop offset="0.9677" stop-color="#068FDE"/>
<stop offset="1" stop-color="#00ACDC"/>
</linearGradient>
<linearGradient id="paint2_linear_2866_844" x1="94.7717" y1="118.538" x2="190.547" y2="83.6087" gradientUnits="userSpaceOnUse">
<stop stop-color="#00DBDB"/>
<stop offset="1" stop-color="#3647D3"/>
</linearGradient>
</defs>
</svg>
